# xmcd
#
# Track frame offsets:
#	750
#	21013
#	42376
#	59905
#	77165
#	93019
#	113608
#	130813
#	152599
#	172563
#	194662
#	214599
#	237252
#	255419
#	275733
#	300132
#	318852
#	346913
#
# Disc length: 4633 seconds
#
# Revision: 1
# Processed by: cddbd v1.5.1PL2 Copyright (c) Steve Scherf et al.
# Submitted via: audiograbber 1.83.01
#
DISCID=e5120f12
DTITLE=Laith Al-Deen - Melomanie
DYEAR=2002
DGENRE=Pop
TTITLE0=Dein Lied (Album Mix)
TTITLE1=Jedesmal
TTITLE2=Jetzt, Hier, Immer
TTITLE3=Das Beste
TTITLE4=Traurig
TTITLE5=Geh
TTITLE6=Es Tut Mir Leid
TTITLE7=Ich Mag Wie Du Mich Liebst
TTITLE8=Hör Gar Nicht Hin
TTITLE9=Irgendwann
TTITLE10=Ganz Oder Garnicht
TTITLE11=Augen
TTITLE12=Du Und Ich
TTITLE13=Keine Macht Dieser Welt
TTITLE14=Keine Antwort
TTITLE15=Outro
TTITLE16=Hör Mir Zu (Unplugged)
TTITLE17=Daten-CD
EXTD=
EXTT0=
EXTT1=
EXTT2=
EXTT3=
EXTT4=
EXTT5=
EXTT6=
EXTT7=
EXTT8=
EXTT9=
EXTT10=
EXTT11=
EXTT12=
EXTT13=
EXTT14=
EXTT15=
EXTT16=
EXTT17=
PLAYORDER=
